<?xml version="1.0" standalone="no"?>
<!DOCTYPE svg PUBLIC "-//W3C//DTD SVG 20010904//EN"
 "http://www.w3.org/TR/2001/REC-SVG-20010904/DTD/svg10.dtd">
<svg version="1.0" xmlns="http://www.w3.org/2000/svg"
 width="1060.000000pt" height="1060.000000pt" viewBox="0 0 1060.000000 1060.000000"
 preserveAspectRatio="xMidYMid meet">
<metadata>
Created by potrace 1.14, written by Peter Selinger 2001-2017
</metadata>
<g transform="translate(0.000000,1060.000000) scale(0.100000,-0.100000)"
fill="#000000" stroke="none">
<path d="M6948 9655 c-2 -1 -41 -5 -88 -9 -47 -3 -96 -8 -110 -10 -14 -3 -43
-7 -65 -11 -158 -23 -344 -68 -506 -124 -159 -54 -206 -74 -349 -145 -291
-145 -524 -313 -751 -539 -105 -104 -253 -277 -303 -354 -20 -31 -24 -32 -76
-30 -30 2 -54 7 -53 13 55 330 -33 584 -267 775 -67 55 -203 125 -275 143 -5
2 -28 8 -50 14 -65 18 -153 27 -265 27 -146 -1 -220 -11 -325 -46 -213 -71
-390 -225 -476 -414 -73 -162 -84 -387 -28 -560 25 -76 35 -97 80 -166 l36
-56 -56 -23 c-183 -74 -445 -213 -636 -338 -95 -62 -297 -209 -340 -249 -11
-10 -47 -40 -80 -68 -62 -51 -279 -265 -351 -345 -71 -79 -229 -282 -297 -382
-244 -356 -448 -797 -547 -1188 -12 -47 -24 -92 -26 -100 -21 -82 -57 -286
-75 -420 -17 -130 -22 -220 -23 -425 -1 -228 6 -406 18 -470 2 -11 7 -46 11
-79 29 -243 114 -575 213 -841 232 -617 643 -1188 1152 -1600 52 -43 97 -79
99 -81 2 -2 4 -265 4 -584 l0 -582 426 5 c420 4 455 6 599 28 102 15 121 18
167 31 22 5 48 12 58 14 50 9 201 60 279 94 108 46 207 106 296 176 74 59 61
57 217 38 28 -4 145 -7 260 -9 l210 -2 90 -54 c113 -69 289 -158 380 -193 39
-15 79 -31 90 -36 36 -18 178 -60 315 -95 140 -35 292 -61 433 -72 161 -14
500 -7 607 11 14 3 41 7 60 10 518 82 979 286 1385 615 148 120 341 323 472
496 306 406 505 925 549 1435 15 163 9 452 -12 608 -5 39 2 58 80 215 114 229
205 514 231 722 4 28 8 57 10 65 4 16 15 123 21 200 1 25 3 113 3 195 -1 83 0
162 0 177 1 16 28 64 67 120 87 124 150 228 223 374 50 100 148 333 155 369 2
5 12 42 24 80 21 69 59 217 68 265 2 14 6 34 9 45 2 11 7 43 10 70 4 28 8 57
10 65 26 99 26 611 1 747 -3 16 -14 85 -21 138 -2 11 -8 38 -13 60 -6 22 -13
52 -16 66 -25 148 -130 439 -227 632 -74 147 -237 408 -279 447 -3 3 -32 39
-64 80 -78 98 -298 317 -406 403 -88 71 -257 189 -322 226 -21 11 -55 31 -75
42 -70 40 -248 126 -318 154 -38 15 -90 35 -115 45 -131 52 -437 125 -605 145
-27 3 -66 8 -85 11 -37 5 -436 14 -442 9z"/>
</g>
</svg>
