<svg xmlns="http://www.w3.org/2000/svg" version="1.1" xmlns:xlink="http://www.w3.org/1999/xlink" xmlns:svgjs="http://svgjs.com/svgjs" width="932.03" height="1058.95"><svg id="SvgjsSvg1000" data-name="Layer 1" xmlns="http://www.w3.org/2000/svg" viewBox="0 0 932.03 1058.95">
  <defs>
    <style>
      .cls-1 {
        fill: #231f20;
        font-family: DMSans-Black, 'DM Sans';
        font-size: 954.02px;
        font-variation-settings: 'opsz' 14, 'wght' 900;
        font-weight: 800;
        letter-spacing: -.12em;
      }

      .cls-2 {
        fill: #36a949;
        stroke: #f05a28;
        stroke-miterlimit: 10;
        stroke-width: 12px;
      }
    </style>
  </defs>
  <path class="cls-2" d="m638.66,1010.99c-83.16,25.6-169.08,10.41-235.97-34.19-168.99,8.27-328.23-97.32-379.99-265.44-61.31-199.14,51.52-410.69,252.08-472.44,46.57-14.34,93.76-19.32,139.57-16.07,34.55-50.92,86.19-90.93,149.8-110.51,147.85-45.52,304.36,36.62,349.57,183.46,37.38,121.42-13.01,248.98-115.14,315.32,9.82,17.12,17.9,35.64,23.95,55.28,44.74,145.31-37.62,299.57-183.87,344.6Z"></path>
  <text class="cls-1" transform="translate(178.39 810.91)" svgjs:data="{&quot;leading&quot;:&quot;1.3&quot;}"><tspan x="0" y="0" svgjs:data="{&quot;leading&quot;:&quot;1.3&quot;}">jo</tspan></text>
</svg><style>@media (prefers-color-scheme: light) { :root { filter: none; } }
</style></svg>