<?xml version="1.0" encoding="utf-8"?>
<!-- Generator: Adobe Illustrator 27.8.1, SVG Export Plug-In . SVG Version: 6.00 Build 0)  -->
<svg version="1.1" id="Layer_1" xmlns="http://www.w3.org/2000/svg" xmlns:xlink="http://www.w3.org/1999/xlink" x="0px" y="0px"
	 viewBox="0 0 512 512" style="enable-background:new 0 0 512 512;" xml:space="preserve">
<style type="text/css">
	.st0{fill:#36A949;}
</style>
<g transform="scale(20.48)">
	<path class="st0" d="M14,10h3.4c-0.9-1.8-2.8-3-4.9-3C9.5,7,7,9.5,7,12.5S9.5,18,12.5,18c2.1,0,4-1.2,4.9-3H14
		c-0.3,0-0.5-0.2-0.5-0.5v-4C13.5,10.2,13.7,10,14,10L14,10z"/>
	<path class="st0" d="M14.5,11h8v3h-8V11z"/>
	<path class="st0" d="M20,2.5H5C3.6,2.5,2.5,3.6,2.5,5v15c0,1.4,1.1,2.5,2.5,2.5h15c1.4,0,2.5-1.1,2.5-2.5v-5h-4c-1,2.4-3.4,4-6,4
		C8.9,19,6,16.1,6,12.5S8.9,6,12.5,6c2.6,0,5,1.6,6,4h4V5C22.5,3.6,21.4,2.5,20,2.5z"/>
</g>
</svg>
